<svg xmlns="http://www.w3.org/2000/svg" viewBox="2025 7796 512.002 431.93">
  <defs>
    <style>
      .cls-1 {
        fill: #f6bb42;
      }

      .cls-2 {
        fill: #ffce54;
      }

      .cls-3 {
        opacity: 0.4;
      }

      .cls-4 {
        fill: #fff;
      }

      .cls-5 {
        fill: #92ecb9;
      }

      .cls-6 {
        fill: #da4453;
      }

      .cls-7 {
        opacity: 0.2;
      }

      .cls-8 {
        fill: #3a3847;
      }

      .cls-9 {
        opacity: 0.3;
      }

      .cls-10 {
        fill: #ed5565;
      }
    </style>
  </defs>
  <g id="box" transform="translate(2025 7755.964)">
    <path id="Path_15" data-name="Path 15" class="cls-1" d="M301.123,172.015a219.743,219.743,0,0,0-274.143,0Z"/>
    <path id="Path_16" data-name="Path 16" class="cls-2" d="M266.441,171.983a179.842,179.842,0,0,0-204.764,0Z"/>
    <g id="Group_64" data-name="Group 64" class="cls-3">
      <path id="Path_17" data-name="Path 17" class="cls-4" d="M228.885,172.015a139.512,139.512,0,0,0-129.824,0Z"/>
    </g>
    <rect id="Rectangle_21" data-name="Rectangle 21" class="cls-5" width="319.96" height="295.95" transform="translate(4 171.981)"/>
    <g id="Group_65" data-name="Group 65">
      <rect id="Rectangle_22" data-name="Rectangle 22" class="cls-6" width="63.989" height="64.29" transform="translate(132.03 171.981)"/>
      <rect id="Rectangle_23" data-name="Rectangle 23" class="cls-6" width="63.989" height="64.3" transform="translate(132.03 403.661)"/>
    </g>
    <g id="Group_66" data-name="Group 66" class="cls-3">
      <rect id="Rectangle_24" data-name="Rectangle 24" class="cls-4" width="7.92" height="73.75" transform="translate(132.06 172.011)"/>
    </g>
    <g id="Group_67" data-name="Group 67" class="cls-3">
      <rect id="Rectangle_25" data-name="Rectangle 25" class="cls-4" width="7.92" height="73.75" transform="translate(132.06 394.181)"/>
    </g>
    <g id="Group_68" data-name="Group 68" class="cls-7">
      <rect id="Rectangle_26" data-name="Rectangle 26" class="cls-8" width="7.92" height="73.75" transform="translate(188.13 172.011)"/>
    </g>
    <g id="Group_69" data-name="Group 69" class="cls-7">
      <rect id="Rectangle_27" data-name="Rectangle 27" class="cls-8" width="7.92" height="73.75" transform="translate(188.13 394.181)"/>
    </g>
    <path id="Path_18" data-name="Path 18" class="cls-6" d="M446.17,274.881a109.589,109.589,0,0,1-13.521,9.194l-6.24-14.717-12.475-29.515h.078s10.24-50.711,44.156-18.638C480,241.925,461.043,263.121,446.17,274.881Z"/>
    <g id="Group_70" data-name="Group 70" class="cls-9">
      <path id="Path_19" data-name="Path 19" class="cls-8" d="M434.406,277.356l-12.475-29.515h.078s9.475-46.832,40.354-21.945a39.488,39.488,0,0,0-4.2-4.69c-33.916-32.073-44.156,18.638-44.156,18.638h-.078l12.475,29.515,6.24,14.717s1.43-.789,3.672-2.211Z"/>
    </g>
    <g id="Group_71" data-name="Group 71">
      <path id="Path_20" data-name="Path 20" class="cls-6" d="M461.043,289.519c5.6,13.357.086,20.794.086,20.794a108.973,108.973,0,0,0-16,3.28l-6.24-14.716-6.242-14.8a109.724,109.724,0,0,0,13.521-9.194S455.365,276.154,461.043,289.519Z"/>
      <path id="Path_21" data-name="Path 21" class="cls-6" d="M461.129,310.313c18.715-2.476,47.266-1.359,46.867,28.792-.641,46.633-44.148,18.638-44.148,18.638h-.078L451.288,328.31l-6.156-14.717A108.91,108.91,0,0,1,461.129,310.313Z"/>
    </g>
    <g id="Group_72" data-name="Group 72" class="cls-9">
      <path id="Path_22" data-name="Path 22" class="cls-8" d="M496.123,314.7c2.484,4.172,3.969,9.491,3.875,16.4-.492,35.947-26.395,27.565-38.268,21.824l2.039,4.812h.078s43.508,27.995,44.148-18.638C508.16,326.505,503.24,319.022,496.123,314.7Z"/>
    </g>
    <g id="Group_73" data-name="Group 73">
      <path id="Path_23" data-name="Path 23" class="cls-5" d="M463.77,357.742l37.353,88.471-51.516,21.754-49.828-117.9,51.508-21.753Z"/>
      <path id="Path_24" data-name="Path 24" class="cls-5" d="M413.934,239.844l12.474,29.514L374.9,291.112,325.064,173.3l51.516-21.837Z"/>
    </g>
    <g id="Group_74" data-name="Group 74" class="cls-9">
      <path id="Path_25" data-name="Path 25" class="cls-4" d="M415.777,350.063l37.94-16.02-2.43-5.733-51.508,21.753,49.828,117.9,13.577-5.734Z"/>
    </g>
    <g id="Group_75" data-name="Group 75" class="cls-9">
      <path id="Path_26" data-name="Path 26" class="cls-4" d="M341.062,173.3l37.948-16.084-2.43-5.753L325.064,173.3,374.9,291.112l13.577-5.733Z"/>
    </g>
    <path id="Path_27" data-name="Path 27" class="cls-10" d="M445.131,313.593l6.156,14.717-51.508,21.753L374.9,291.112l51.508-21.754,6.24,14.717,6.243,14.8Z"/>
    <g id="Group_76" data-name="Group 76" class="cls-7">
      <path id="Path_28" data-name="Path 28" class="cls-8" d="M463.77,357.742,451.287,328.31l-6.156-14.717-6.24-14.716-6.243-14.8-6.24-14.717-12.474-29.514L376.58,151.459l-13.568,5.753,34.924,82.632,12.474,29.514,6.242,14.717,6.241,14.8,6.242,14.716,6.154,14.717,12.482,29.432,37.354,88.471-37.939,16.02,2.421,5.734,51.516-21.754Z"/>
    </g>
    <g id="Group_77" data-name="Group 77" class="cls-7">
      <path id="Path_29" data-name="Path 29" class="cls-4" d="M390.9,291.112l37.94-16.02-2.43-5.734L374.9,291.112l24.879,58.951,13.576-5.732Z"/>
    </g>
    <g id="Group_78" data-name="Group 78">
      <path id="Path_30" data-name="Path 30" class="cls-2" d="M151.733,294.151A13.838,13.838,0,1,1,137.9,280.317,13.892,13.892,0,0,1,151.733,294.151Z"/>
      <path id="Path_31" data-name="Path 31" class="cls-2" d="M190.211,328.31a13.838,13.838,0,1,1-13.841,13.834A13.834,13.834,0,0,1,190.211,328.31Z"/>
    </g>
    <path id="Path_32" data-name="Path 32" class="cls-10" d="M247.718,311.672l8.318,8.241-8.318,8.318,6.483,9.678-9.678,6.477,4.476,10.8L238.2,359.665l2.32,11.436L229,373.343l.078,11.678H217.4l-2.32,11.436-11.436-2.32-4.476,10.8-10.725-4.484-6.476,9.764-9.756-6.561-8.241,8.318-8.241-8.318-9.678,6.475-6.476-9.678-10.8,4.484-4.476-10.8-11.357,2.32-2.32-11.514H98.945v-11.6l-11.436-2.32,2.32-11.436-10.8-4.483,4.484-10.717-9.679-6.477,6.476-9.764-8.241-8.232,8.163-8.163-6.483-9.679,9.765-6.475-4.484-10.8,10.717-4.476L87.51,268.881l11.436-2.242V254.961h11.678l2.242-11.439,11.436,2.242,4.476-10.8,10.8,4.48,6.476-9.679,9.678,6.476,8.241-8.236,8.241,8.236,9.756-6.476,6.4,9.679,10.8-4.48,4.476,10.8,11.436-2.32,2.32,11.436h11.678L229,266.562l11.521,2.234-2.32,11.443L249,284.715l-4.476,10.8,9.678,6.475ZM137.9,307.993a13.838,13.838,0,1,0-13.842-13.842A13.892,13.892,0,0,0,137.9,307.993Zm52.311,20.317a13.838,13.838,0,1,0,13.834,13.834A13.791,13.791,0,0,0,190.211,328.31Z"/>
    <g id="Group_79" data-name="Group 79" class="cls-9">
      <path id="Path_33" data-name="Path 33" class="cls-4" d="M182.432,230.466l-.461-.7-.141.093Z"/>
      <path id="Path_34" data-name="Path 34" class="cls-4" d="M181.814,410.116l.157.1.523-.788Z"/>
      <path id="Path_35" data-name="Path 35" class="cls-4" d="M155.577,400.454l-10.8,4.485-4.476-10.8-11.357,2.32-2.32-11.514H114.942v-11.6l-11.435-2.32,2.32-11.436-10.8-4.483,4.483-10.717-9.677-6.477,6.475-9.763-8.241-8.233,8.163-8.163-6.483-9.679,9.763-6.474-4.483-10.8,10.717-4.476-2.234-11.435,11.435-2.242V254.962H126.62l2.242-11.44,11.435,2.243,4.476-10.8,10.8,4.48,6.155-9.2-6,6-9.678-6.475-6.476,9.678-10.8-4.48-4.476,10.8-11.435-2.243-2.242,11.44H98.945V266.64l-11.436,2.242,2.235,11.435-10.718,4.476,4.484,10.8-9.764,6.474,6.483,9.679-8.163,8.163,8.241,8.233-6.475,9.763,9.678,6.477L79.026,355.1l10.8,4.483-2.321,11.436,11.436,2.32v11.6h11.678l2.32,11.514,11.357-2.32,4.476,10.8,10.8-4.485,6.476,9.678,9.678-6.475,6.124,6.179Z"/>
    </g>
    <g id="Group_80" data-name="Group 80" class="cls-9">
      <path id="Path_36" data-name="Path 36" class="cls-8" d="M144.891,409.523l.461.695.14-.094Z"/>
      <path id="Path_37" data-name="Path 37" class="cls-8" d="M145.508,229.868l-.156-.1-.524.789Z"/>
      <path id="Path_38" data-name="Path 38" class="cls-8" d="M171.746,239.531l10.8-4.484,4.476,10.8,11.357-2.321,2.32,11.514H212.38v11.6l11.435,2.328L221.5,280.4l10.8,4.484-4.483,10.718,9.678,6.466-6.475,9.765,8.24,8.241-8.163,8.162,6.484,9.67-9.764,6.485,4.483,10.795-10.716,4.483,2.233,11.435-11.435,2.235v11.685H200.7l-2.242,11.436-11.435-2.242-4.476,10.8-10.8-4.484-6.156,9.2,6-6,9.679,6.475,6.475-9.678,10.8,4.484,4.476-10.8,11.436,2.242,2.242-11.436h11.677V373.342l11.436-2.235-2.234-11.435L248.3,355.2l-4.484-10.8,9.765-6.477-6.484-9.678,8.163-8.162-8.241-8.233,6.476-9.765-9.679-6.474,4.484-10.718-10.8-4.484,2.32-11.435-11.436-2.328v-11.6H216.7l-2.321-11.514-11.357,2.321-4.476-10.8-10.8,4.484-6.475-9.678-9.679,6.475-6.124-6.179Z"/>
    </g>
    <g id="Group_81" data-name="Group 81" class="cls-3">
      <rect id="Rectangle_28" data-name="Rectangle 28" class="cls-4" width="15.997" height="295.98" transform="translate(4 171.981)"/>
    </g>
    <g id="Group_82" data-name="Group 82" class="cls-7">
      <rect id="Rectangle_29" data-name="Rectangle 29" class="cls-8" width="15.996" height="295.98" transform="translate(307.95 171.981)"/>
    </g>
    <g id="Group_83" data-name="Group 83">
      <path id="Path_39" data-name="Path 39" class="cls-8" d="M323.947,471.966H4a4,4,0,0,1-4-4V172.015a4,4,0,0,1,4-4H323.948a4,4,0,0,1,4,4V467.967A4,4,0,0,1,323.947,471.966ZM8,463.968H319.95V176.014H8Z"/>
      <path id="Path_40" data-name="Path 40" class="cls-8" d="M132.057,471.966a4,4,0,0,1-4-4V419.975a4,4,0,0,1,8,0v47.992A4,4,0,0,1,132.057,471.966Z"/>
      <path id="Path_41" data-name="Path 41" class="cls-8" d="M196.046,471.966a4,4,0,0,1-4-4V419.975a4,4,0,0,1,8,0v47.992A4,4,0,0,1,196.046,471.966Z"/>
      <path id="Path_42" data-name="Path 42" class="cls-8" d="M132.057,223.928a4,4,0,0,1-4-4V172.015a4,4,0,1,1,8,0v47.914A4,4,0,0,1,132.057,223.928Z"/>
      <path id="Path_43" data-name="Path 43" class="cls-8" d="M196.046,223.928a4,4,0,0,1-4-4V172.015a4,4,0,1,1,8,0v47.914A4,4,0,0,1,196.046,223.928Z"/>
      <path id="Path_44" data-name="Path 44" class="cls-8" d="M275.955,160.017a4,4,0,0,1-2.031-.555c-19.91-11.74-60.677-31.44-109.95-31.44s-90.041,19.7-109.951,31.44a4,4,0,0,1-4.062-6.89c20.614-12.158,62.842-32.549,114.013-32.549s93.4,20.391,114.013,32.549a4,4,0,0,1-2.032,7.445Z"/>
      <path id="Path_45" data-name="Path 45" class="cls-8" d="M239.954,160.017a4.025,4.025,0,0,1-1.781-.422c-.312-.156-31.752-15.576-74.2-15.576s-73.886,15.419-74.2,15.576A4,4,0,0,1,86.2,152.44c1.344-.672,33.354-16.419,77.777-16.419s76.433,15.747,77.776,16.419a4,4,0,0,1-1.8,7.577Z"/>
      <path id="Path_46" data-name="Path 46" class="cls-8" d="M163.974,104.025a4,4,0,0,1-4-4V44.035a4,4,0,0,1,8,0v55.991A4,4,0,0,1,163.974,104.025Z"/>
      <path id="Path_47" data-name="Path 47" class="cls-8" d="M123.011,107.544a4,4,0,0,1-3.929-3.3l-9.756-55.112a4,4,0,0,1,7.874-1.391l9.756,55.112a4,4,0,0,1-3.242,4.632A3.79,3.79,0,0,1,123.011,107.544Z"/>
      <path id="Path_48" data-name="Path 48" class="cls-8" d="M83.268,118.184a4,4,0,0,1-3.757-2.633L60.389,63A4,4,0,1,1,67.9,60.267l19.122,52.551a4,4,0,0,1-3.757,5.366Z"/>
      <path id="Path_49" data-name="Path 49" class="cls-8" d="M45.993,135.622a4,4,0,0,1-3.468-2l-28-48.555a4,4,0,0,1,6.937-3.991l27.995,48.555a4,4,0,0,1-3.468,5.995Z"/>
      <path id="Path_50" data-name="Path 50" class="cls-8" d="M281.955,135.622a4,4,0,0,1-3.461-6l28-48.473a4,4,0,1,1,6.92,4l-27.994,48.473A3.984,3.984,0,0,1,281.955,135.622Z"/>
      <path id="Path_51" data-name="Path 51" class="cls-8" d="M244.679,118.262a4,4,0,0,1-3.757-5.367l19.123-52.628A4,4,0,0,1,267.559,63l-19.122,52.628A4,4,0,0,1,244.679,118.262Z"/>
      <path id="Path_52" data-name="Path 52" class="cls-8" d="M204.936,107.626a4.109,4.109,0,0,1-.7-.059,4,4,0,0,1-3.25-4.632l9.679-55.194a4,4,0,1,1,7.874,1.383l-9.678,55.194A3.992,3.992,0,0,1,204.936,107.626Z"/>
      <path id="Path_53" data-name="Path 53" class="cls-8" d="M449.607,471.966a4.006,4.006,0,0,1-3.688-2.444L321.379,174.854a4.006,4.006,0,0,1,2.123-5.242l51.516-21.836a4.012,4.012,0,0,1,5.25,2.125L504.809,444.658a4,4,0,0,1-2.131,5.241l-51.516,21.754A4.031,4.031,0,0,1,449.607,471.966Zm-119.3-296.55,121.426,287.31,44.148-18.638L374.455,156.705Z"/>
      <path id="Path_54" data-name="Path 54" class="cls-8" d="M374.9,295.112a4,4,0,0,1-1.555-7.686l51.508-21.755a4,4,0,1,1,3.109,7.374L376.454,294.8A4.023,4.023,0,0,1,374.9,295.112Z"/>
      <path id="Path_55" data-name="Path 55" class="cls-8" d="M399.779,354.063a4,4,0,0,1-1.555-7.686l51.508-21.754A4,4,0,1,1,452.841,332l-51.508,21.754A4.022,4.022,0,0,1,399.779,354.063Z"/>
      <path id="Path_56" data-name="Path 56" class="cls-8" d="M432.656,288.074a4,4,0,0,1-1.936-7.5,108.449,108.449,0,0,0,12.965-8.834c9.008-7.117,19.842-18.025,20.365-29.6.289-6.351-2.539-12.252-8.633-18.036-8.271-7.811-15.387-10.857-21.215-9.01-9.74,3.089-15.053,19.481-16.27,25.539a4,4,0,0,1-7.844-1.586c.219-1.078,5.516-26.449,21.7-31.577,8.8-2.789,18.584.859,29.129,10.826,7.771,7.378,11.514,15.521,11.123,24.207-.656,14.584-13.084,27.359-23.387,35.514a112.62,112.62,0,0,1-14.076,9.554A3.884,3.884,0,0,1,432.656,288.074Z"/>
      <path id="Path_57" data-name="Path 57" class="cls-8" d="M488.727,370.053c-12.951,0-26.324-8.483-27.043-8.943a4,4,0,0,1,4.328-6.733c5.209,3.343,20.73,10.959,29.682,6.132,5.352-2.883,8.148-10.1,8.3-21.458.109-8.4-2.146-14.536-6.9-18.754-8.67-7.71-24.051-7.538-35.447-6.016a105.954,105.954,0,0,0-15.357,3.141,4,4,0,0,1-2.336-7.655,112.963,112.963,0,0,1,16.654-3.421c13.045-1.711,30.879-1.734,41.8,7.967,6.5,5.773,9.725,14.131,9.584,24.848-.2,14.49-4.414,24.043-12.529,28.4A22.537,22.537,0,0,1,488.727,370.053Z"/>
      <path id="Path_58" data-name="Path 58" class="cls-8" d="M461.129,314.312a4,4,0,0,1-3.211-6.381c.125-.188,3.984-6.016-.562-16.865-4.607-10.85-11.514-12.186-11.8-12.232a4.038,4.038,0,0,1-3.3-4.569,3.972,3.972,0,0,1,4.459-3.343c.469.062,11.514,1.757,18.006,17.036,6.412,15.294-.1,24.363-.383,24.738A4,4,0,0,1,461.129,314.312Z"/>
      <path id="Path_59" data-name="Path 59" class="cls-8" d="M438.891,302.876a4,4,0,0,1-1.594-7.662l7.357-3.2a4,4,0,1,1,3.188,7.327l-7.357,3.2A3.969,3.969,0,0,1,438.891,302.876Z"/>
      <path id="Path_60" data-name="Path 60" class="cls-8" d="M163.974,415.976a4,4,0,0,1-2.843-1.188l-5.913-5.976-6.937,4.647a4.02,4.02,0,0,1-5.554-1.1l-4.647-6.952-7.772,3.227a4,4,0,0,1-5.226-2.164l-3.21-7.757-8.131,1.664a3.909,3.909,0,0,1-3.008-.586,4.02,4.02,0,0,1-1.71-2.546l-1.671-8.3h-8.4a4,4,0,0,1-4-4v-8.327l-8.233-1.672a4,4,0,0,1-3.124-4.718l1.664-8.21L77.5,358.8a4,4,0,0,1-2.156-5.241l3.21-7.679-6.944-4.64A4,4,0,0,1,70.5,335.7l4.671-7.038-5.929-5.921a4,4,0,0,1,0-5.655l5.835-5.843L70.43,304.3a3.984,3.984,0,0,1-.6-3.008,4.042,4.042,0,0,1,1.711-2.554l7.014-4.647-3.218-7.765a3.993,3.993,0,0,1,2.156-5.218l7.7-3.227-1.609-8.232a4,4,0,0,1,3.155-4.688l8.21-1.612v-8.386a4,4,0,0,1,4-4h8.39l1.609-8.21a4.015,4.015,0,0,1,1.687-2.55,3.93,3.93,0,0,1,3.008-.6l8.217,1.613,3.226-7.776a4,4,0,0,1,5.226-2.164l7.772,3.222,4.647-6.948a4,4,0,0,1,2.546-1.7,3.9,3.9,0,0,1,3.007.6l6.944,4.647,5.921-5.913a4,4,0,0,1,5.655,0l5.929,5.925,7.03-4.667a4.106,4.106,0,0,1,3.007-.59,4.013,4.013,0,0,1,2.539,1.715l4.577,6.924,7.757-3.214a4,4,0,0,1,5.226,2.164l3.218,7.756,8.2-1.667a4.026,4.026,0,0,1,4.718,3.124l1.672,8.233h8.4a4,4,0,0,1,4,4.027l-.055,8.362,8.257,1.6a4,4,0,0,1,3.163,4.726l-1.664,8.217,7.749,3.211a4,4,0,0,1,2.164,5.226l-3.219,7.772,6.952,4.647a4.007,4.007,0,0,1,1.094,5.554l-4.64,6.937,5.968,5.913a4,4,0,0,1,.016,5.671l-5.992,6,4.648,6.944a4.008,4.008,0,0,1-1.094,5.554l-6.952,4.647,3.219,7.772a4,4,0,0,1-2.164,5.226l-7.749,3.21,1.664,8.21a4,4,0,0,1-3.156,4.725l-8.265,1.6.047,7.241a4.012,4.012,0,0,1-3.835,5.147.508.508,0,0,1-.156,0h-8.4l-1.672,8.233a4.007,4.007,0,0,1-1.71,2.538,3.9,3.9,0,0,1-3.008.586l-8.2-1.664-3.218,7.757a4,4,0,0,1-5.233,2.156l-7.679-3.2-4.647,7.007a4.009,4.009,0,0,1-5.57,1.109l-7.007-4.718-5.913,5.968A4,4,0,0,1,163.974,415.976Zm-8.241-16.319a3.994,3.994,0,0,1,2.843,1.188l5.4,5.444,5.4-5.444a4.024,4.024,0,0,1,5.078-.508l6.413,4.32,4.249-6.414a3.961,3.961,0,0,1,4.874-1.476l7.03,2.937,2.937-7.1a4.022,4.022,0,0,1,4.492-2.391l7.514,1.523,1.523-7.515a4.006,4.006,0,0,1,3.922-3.2h7.654L225,373.364a4,4,0,0,1,3.234-3.953l7.569-1.468-1.523-7.483a4.012,4.012,0,0,1,2.39-4.491l7.1-2.945-2.944-7.108a4.006,4.006,0,0,1,1.468-4.858l6.358-4.249-4.257-6.351a4,4,0,0,1,.492-5.055l5.476-5.475-5.46-5.414a3.992,3.992,0,0,1-.508-5.069l4.257-6.351-6.358-4.249a4.006,4.006,0,0,1-1.468-4.858l2.944-7.108-7.1-2.944a4.013,4.013,0,0,1-2.39-4.492l1.523-7.49-7.561-1.461A4,4,0,0,1,225,266.539l.054-7.658H217.4a4,4,0,0,1-3.922-3.2l-1.523-7.519-7.514,1.527a4.045,4.045,0,0,1-4.492-2.39l-2.945-7.1-7.108,2.949a4,4,0,0,1-4.866-1.488l-4.187-6.335-6.421,4.257a4,4,0,0,1-5.039-.5l-5.413-5.409-5.414,5.409a4,4,0,0,1-5.054.5l-6.351-4.25-4.249,6.351a4.015,4.015,0,0,1-4.858,1.472l-7.108-2.949-2.945,7.1a3.944,3.944,0,0,1-4.468,2.394l-7.507-1.473-1.476,7.515a4,4,0,0,1-3.921,3.23h-7.678v7.678a3.991,3.991,0,0,1-3.234,3.922L92.2,272.037l1.461,7.515a3.983,3.983,0,0,1-2.382,4.453l-7.03,2.944,2.953,7.116a4,4,0,0,1-1.484,4.866l-6.413,4.249,4.242,6.343a4,4,0,0,1-.492,5.054l-5.335,5.336,5.413,5.4a4.011,4.011,0,0,1,.508,5.039L79.37,336.8l6.366,4.257a4.008,4.008,0,0,1,1.461,4.874l-2.937,7.015,7.1,2.945a4.012,4.012,0,0,1,2.39,4.491L92.228,367.9l7.515,1.522a4.007,4.007,0,0,1,3.2,3.922v7.6h7.678a4,4,0,0,1,3.921,3.21l1.531,7.585,7.429-1.523A4.022,4.022,0,0,1,128,392.606l2.945,7.107,7.108-2.952a4.019,4.019,0,0,1,4.858,1.468l4.249,6.359,6.351-4.258A3.982,3.982,0,0,1,155.733,399.657Z"/>
      <path id="Path_61" data-name="Path 61" class="cls-8" d="M148.054,471.966a4,4,0,0,1-4-4v-24a4,4,0,0,1,8,0v24A4,4,0,0,1,148.054,471.966Z"/>
      <path id="Path_62" data-name="Path 62" class="cls-8" d="M180.049,200.01a4,4,0,0,1-4-4v-24a4,4,0,1,1,8,0v24A4,4,0,0,1,180.049,200.01Z"/>
      <path id="Path_63" data-name="Path 63" class="cls-8" d="M128.057,359.984a4,4,0,0,1-2.827-6.827l71.988-71.988a4,4,0,1,1,5.655,5.655l-71.988,71.988A3.982,3.982,0,0,1,128.057,359.984Z"/>
      <path id="Path_64" data-name="Path 64" class="cls-8" d="M190.211,359.984a17.837,17.837,0,1,1,17.833-17.841A17.866,17.866,0,0,1,190.211,359.984Zm0-27.674a9.838,9.838,0,1,0,9.834,9.834A9.849,9.849,0,0,0,190.211,332.31Z"/>
      <path id="Path_65" data-name="Path 65" class="cls-8" d="M137.9,311.992a17.837,17.837,0,1,1,17.833-17.841A17.865,17.865,0,0,1,137.9,311.992Zm0-27.676a9.839,9.839,0,1,0,9.834,9.835A9.85,9.85,0,0,0,137.9,284.316Z"/>
    </g>
  </g>
</svg>
