<svg xmlns="http://www.w3.org/2000/svg" viewBox="2083 5821 254.128 254.128">
  <defs>
    <style>
      .cls-1 {
        fill: #ff7459;
      }

      .cls-2 {
        fill: #fc5b52;
      }

      .cls-3 {
        fill: #ffda0d;
      }

      .cls-4 {
        fill: #ffe766;
      }

      .cls-5 {
        fill: #ffd35d;
      }

      .cls-6 {
        fill: #ffa644;
      }

      .cls-7 {
        fill: #ff8742;
      }

      .cls-8 {
        fill: #ff7131;
      }

      .cls-9 {
        fill: #f36231;
      }

      .cls-10 {
        fill: #eb544e;
      }

      .cls-11 {
        fill: #d64c4c;
      }
    </style>
  </defs>
  <g id="pyramid" transform="translate(2083 5821)">
    <path id="Path_1" data-name="Path 1" class="cls-1" d="M306.77,19.927h32.688a2.482,2.482,0,0,1,1.985,3.971L329.531,39.781l11.912,15.883a2.482,2.482,0,0,1-1.985,3.971H306.77a16.946,16.946,0,0,1-11.983-4.963h0A16.946,16.946,0,0,0,282.8,49.707H256V10h26.8a16.946,16.946,0,0,1,11.983,4.963h0A16.946,16.946,0,0,0,306.77,19.927Z" transform="translate(-128.938 -5.037)"/>
    <path id="Path_2" data-name="Path 2" class="cls-2" d="M401.7,65.737a2.482,2.482,0,0,1-1.985,3.971h-9.182l-14.89-19.854L390.532,30h9.182a2.482,2.482,0,0,1,1.985,3.971L389.788,49.854Z" transform="translate(-189.194 -15.11)"/>
    <path id="Path_3" data-name="Path 3" class="cls-3" d="M255.945,3.723V107.955a3.723,3.723,0,0,1-7.445,0V3.723a3.723,3.723,0,0,1,7.445,0Z" transform="translate(-125.159)"/>
    <path id="Path_4" data-name="Path 4" class="cls-4" d="M254.238,341.049V360.9H15V341.049a4.963,4.963,0,0,1,4.963-4.963H30.387V316.232a4.963,4.963,0,0,1,4.963-4.963H52.226V291.415a4.963,4.963,0,0,1,4.963-4.963h9.927V266.6a4.963,4.963,0,0,1,4.963-4.963H86.97V241.781a4.963,4.963,0,0,1,4.963-4.963h14.89V216.963A4.963,4.963,0,0,1,111.787,212h45.664a4.963,4.963,0,0,1,4.963,4.963v19.854H177.3a4.963,4.963,0,0,1,4.963,4.963v19.854h14.89a4.963,4.963,0,0,1,4.963,4.963v19.854h9.927a4.963,4.963,0,0,1,4.963,4.963v19.854h16.876a4.963,4.963,0,0,1,4.963,4.963v19.854h10.423A4.963,4.963,0,0,1,254.238,341.049Z" transform="translate(-7.555 -106.775)"/>
    <path id="Path_5" data-name="Path 5" class="cls-5" d="M282.5,212h9.679a4.963,4.963,0,0,1,4.963,4.963v31.6h-9.679v-31.6A4.963,4.963,0,0,0,282.5,212Z" transform="translate(-142.283 -106.775)"/>
    <path id="Path_6" data-name="Path 6" class="cls-3" d="M254.238,366.232v19.854H15V366.232a4.963,4.963,0,0,1,4.963-4.963H30.387V341.415a4.963,4.963,0,0,1,4.963-4.963H52.226V316.6a4.963,4.963,0,0,1,4.963-4.963h9.927V291.781a4.963,4.963,0,0,1,4.963-4.963H86.97V266.963A4.963,4.963,0,0,1,91.933,262H177.3a4.963,4.963,0,0,1,4.963,4.963v19.854h14.89a4.963,4.963,0,0,1,4.963,4.963v19.854h9.927a4.963,4.963,0,0,1,4.963,4.963v19.854h16.876a4.963,4.963,0,0,1,4.963,4.963v19.854h10.423A4.963,4.963,0,0,1,254.238,366.232Z" transform="translate(-7.555 -131.958)"/>
    <path id="Path_7" data-name="Path 7" class="cls-6" d="M322.5,262h9.679a4.963,4.963,0,0,1,4.963,4.963v29.615h-9.679V266.963A4.963,4.963,0,0,0,322.5,262Z" transform="translate(-162.429 -131.958)"/>
    <path id="Path_8" data-name="Path 8" class="cls-7" d="M254.238,391.415v19.854H15V391.415a4.963,4.963,0,0,1,4.963-4.963H30.387V366.6a4.963,4.963,0,0,1,4.963-4.963H52.226V341.781a4.963,4.963,0,0,1,4.963-4.963h9.927V316.963A4.963,4.963,0,0,1,72.08,312H197.158a4.963,4.963,0,0,1,4.963,4.963v19.854h9.927a4.963,4.963,0,0,1,4.963,4.963v19.854h16.876a4.963,4.963,0,0,1,4.963,4.963v19.854h10.423A4.963,4.963,0,0,1,254.238,391.415Z" transform="translate(-7.555 -157.141)"/>
    <path id="Path_9" data-name="Path 9" class="cls-8" d="M254.238,391.415v19.854H15V391.415a4.963,4.963,0,0,1,4.963-4.963H30.387V366.6a4.963,4.963,0,0,1,4.963-4.963H52.226V341.781a4.963,4.963,0,0,1,4.963-4.963H192.443V316.963A4.963,4.963,0,0,0,187.479,312h9.679a4.963,4.963,0,0,1,4.963,4.963v19.854h9.927a4.963,4.963,0,0,1,4.963,4.963v19.854h16.876a4.963,4.963,0,0,1,4.963,4.963v19.854h10.423A4.963,4.963,0,0,1,254.238,391.415Z" transform="translate(-7.555 -157.141)"/>
    <path id="Path_10" data-name="Path 10" class="cls-9" d="M392.5,362h9.679a4.963,4.963,0,0,1,4.963,4.963v28.953h-9.679V366.963A4.963,4.963,0,0,0,392.5,362Z" transform="translate(-197.685 -182.324)"/>
    <path id="Path_11" data-name="Path 11" class="cls-2" d="M254.238,441.781v19.854H15V441.781a4.963,4.963,0,0,1,4.963-4.963H30.387V416.963A4.963,4.963,0,0,1,35.35,412H233.888a4.963,4.963,0,0,1,4.963,4.963v19.854h10.423A4.963,4.963,0,0,1,254.238,441.781Z" transform="translate(-7.555 -207.506)"/>
    <path id="Path_12" data-name="Path 12" class="cls-10" d="M254.238,441.781v19.854H15V441.781a4.963,4.963,0,0,1,4.963-4.963H229.172V416.963A4.963,4.963,0,0,0,224.209,412h9.679a4.963,4.963,0,0,1,4.963,4.963v19.854h10.423A4.963,4.963,0,0,1,254.238,441.781Z" transform="translate(-7.555 -207.506)"/>
    <g id="Group_62" data-name="Group 62" transform="translate(0 229.311)">
      <path id="Path_13" data-name="Path 13" class="cls-11" d="M482.142,466.963v19.854h-9.679V466.963A4.963,4.963,0,0,0,467.5,462h9.679A4.963,4.963,0,0,1,482.142,466.963Z" transform="translate(-235.459 -462)"/>
      <path id="Path_14" data-name="Path 14" class="cls-11" d="M254.128,500.723a3.722,3.722,0,0,1-3.723,3.723H3.723a3.723,3.723,0,0,1,0-7.445H250.405A3.722,3.722,0,0,1,254.128,500.723Z" transform="translate(0 -479.628)"/>
    </g>
  </g>
</svg>
